<svg width="80" height="76" viewBox="0 0 80 76" fill="none" xmlns="http://www.w3.org/2000/svg">
<path d="M0.0187988 72.3563C0.915674 70.1485 1.5813 67.8594 2.33755 65.6016C4.87401 58.0443 7.39432 50.4813 9.89849 42.9125C10.5469 40.9688 11.2063 40.5 13.2672 40.5C14.3079 40.5 15.35 40.5266 16.3922 40.4891C16.8938 40.4719 17.1735 40.6094 17.4157 41.0844C21.8313 49.6078 27.8125 56.9219 34.8438 63.411C37.8829 66.2235 42.2032 66.1531 45.2235 63.3531C51.6375 57.4156 57.1547 50.7438 61.4985 43.1344C61.8969 42.4344 62.2797 41.7281 62.6266 40.9969C62.8079 40.611 63.0344 40.475 63.461 40.486C64.6829 40.5156 65.9063 40.486 67.1297 40.4969C68.6657 40.4969 69.4875 41.086 69.9797 42.5453C71.0313 45.6703 72.0672 48.7953 73.1047 51.9313C75.3058 58.5334 77.5073 65.1349 79.7094 71.736C79.7797 71.9453 79.7657 72.2047 79.986 72.361V73.7672C79.1688 75.275 77.8407 75.5219 76.2454 75.511C68.1829 75.4563 60.1204 75.486 52.0563 75.486C35.723 75.486 19.3896 75.486 3.0563 75.486C2.19536 75.486 1.38599 75.3875 0.765674 74.7297C0.500281 74.4203 0.250993 74.0975 0.0187988 73.7625V72.3563Z" fill="#FBE303"/>
<path d="M62.5008 23.2112C62.4243 26.757 61.7427 30.2637 60.4852 33.5799C57.5961 41.3627 52.8977 47.9908 47.3774 54.094C45.6616 56.017 43.8489 57.8511 41.9461 59.5893C40.6149 60.7877 39.3899 60.8096 38.0852 59.5987C31.8867 53.8424 26.4914 47.4362 22.4258 39.983C20.0961 35.7112 18.4024 31.2112 17.7133 26.3565C16.1539 15.3971 22.8133 4.78459 33.3446 1.52521C44.7508 -1.99979 57.0039 4.07053 61.0946 15.2768C62.0321 17.8221 62.4524 20.4455 62.5008 23.2112ZM40.0008 33.0002C41.9801 33.0036 43.916 32.4195 45.5631 31.322C47.2103 30.2244 48.4947 28.6627 49.2536 26.8346C50.0126 25.0066 50.212 22.9944 49.8266 21.053C49.4411 19.1115 48.4882 17.3281 47.0885 15.9286C45.6888 14.5291 43.9052 13.5765 41.9637 13.1913C40.0222 12.8062 38.0101 13.0059 36.1821 13.7652C34.3542 14.5244 32.7927 15.8091 31.6954 17.4564C30.5981 19.1037 30.0143 21.0396 30.018 23.019C30.0258 25.664 31.0802 28.1985 32.9506 30.0687C34.8211 31.9389 37.3558 32.9928 40.0008 33.0002Z" fill="#454950"/>
<path d="M39.9999 33C38.0205 33 36.0856 32.4125 34.4404 31.3121C32.7951 30.2116 31.5134 28.6476 30.7576 26.8181C30.0018 24.9887 29.806 22.9761 30.1949 21.0353C30.5838 19.0944 31.54 17.3127 32.9422 15.9157C34.3445 14.5186 36.1298 13.5692 38.0721 13.1876C40.0144 12.806 42.0262 13.0094 43.8528 13.772C45.6794 14.5346 47.2386 15.8222 48.3329 17.4716C49.4272 19.121 50.0074 21.0581 49.9999 23.0375C49.9867 25.6821 48.9277 28.2142 47.0542 30.0807C45.1806 31.9473 42.6446 32.9967 39.9999 33Z" fill="#FEFEFE"/>
</svg>
