<svg width="80" height="78" viewBox="0 0 80 78" fill="none" xmlns="http://www.w3.org/2000/svg">
<path d="M79.986 14.011C79.5453 15.2938 79.5485 16.6485 79.375 17.972C78.7406 22.8157 78.1516 27.6595 77.5453 32.5032C77.2172 35.1329 76.8781 37.761 76.5625 40.3939C76.3891 41.8407 75.9828 42.3376 74.5656 42.5313C70.525 43.086 66.4797 43.6095 62.436 44.1485C57.5172 44.8048 52.599 45.4626 47.6813 46.122C42.4261 46.822 37.1719 47.5199 31.9188 48.2157C29.3453 48.5595 26.7735 48.9251 24.2016 49.2798C23.1953 48.1189 22.8032 46.697 22.511 45.2392C20.861 37.0235 19.2172 28.8069 17.5797 20.5892C16.9547 17.4642 16.3547 14.3267 15.7438 11.1954C15.8485 11.1954 15.9516 11.186 16.0563 11.186C36.6625 11.1871 57.2683 11.1876 77.8735 11.1876C78.886 11.1876 79.5532 11.5829 79.986 12.4579V14.011ZM31.2625 40.4673C31.2547 40.3923 31.2438 40.1829 31.211 39.9782C30.5943 36.2657 29.9755 32.5532 29.3547 28.8407C28.8485 25.8188 28.3531 22.797 27.8188 19.7782C27.5813 18.4313 26.2563 17.7985 25.1844 18.472C24.5235 18.8923 24.2781 19.6313 24.4422 20.6095C25.1089 24.5782 25.7714 28.547 26.4297 32.5157C26.8901 35.2813 27.3552 38.0465 27.825 40.811C28.0141 41.9142 28.775 42.5454 29.7438 42.4439C30.6563 42.3501 31.2719 41.6032 31.2625 40.4673ZM39.986 38.7813C39.4875 33.3126 39.0047 27.922 38.5032 22.5392C38.4047 21.4813 38.4219 20.4063 38.1375 19.3735C38.0481 19.0161 37.8376 18.7007 37.542 18.4808C37.2463 18.2609 36.8837 18.1501 36.5156 18.1673C35.7672 18.1673 35.2328 18.5438 34.9313 19.2251C34.7578 19.6188 34.8 20.0423 34.836 20.4563C35.1063 23.5626 35.375 26.6688 35.6594 29.7735C35.9406 32.8532 36.2203 35.9329 36.5375 39.0079C36.6531 40.1282 37.4375 40.8017 38.3766 40.7157C39.386 40.622 40.0156 39.8267 39.986 38.7813ZM45.1985 28.5313C45.1985 31.3438 45.1844 34.1563 45.1985 36.9563C45.2078 38.1657 45.9125 38.9595 46.9094 38.9876C47.9328 39.0157 48.6547 38.2063 48.7 36.9563C48.7 36.7751 48.7 36.5923 48.7 36.411V27.1251C48.7 24.836 48.7 22.5485 48.7 20.2595C48.7 19.1313 48.2203 18.4313 47.3688 18.2282C46.1375 17.9313 45.2063 18.7813 45.1985 20.2595C45.1875 23.0188 45.1985 25.7751 45.1985 28.5313ZM59.0625 20.4563C59.1188 19.036 58.5641 18.2688 57.5719 18.1642C56.5625 18.0626 55.7516 18.7798 55.625 19.9376C55.0573 24.9688 54.4943 30.0006 53.936 35.0329C53.8 36.2532 54.4422 37.147 55.4844 37.2548C56.436 37.3548 57.225 36.6657 57.3766 35.4985C57.6281 33.5673 57.8297 31.6313 58.0453 29.6954C58.3938 26.5517 58.7406 23.4032 59.0625 20.4563ZM69.5547 20.0251C69.5321 19.7891 69.4945 19.5548 69.4422 19.3235C69.3353 18.9751 69.1191 18.6704 68.8256 18.4543C68.5322 18.2382 68.177 18.1222 67.8125 18.1235C66.9641 18.136 66.3438 18.6548 66.0938 19.6485C64.9563 24.1485 63.8281 28.6506 62.7094 33.1548C62.568 33.6071 62.6009 34.0958 62.8016 34.5251C62.9481 34.8482 63.1936 35.1162 63.5026 35.2904C63.8117 35.4645 64.1681 35.5358 64.5203 35.4938C65.3125 35.436 65.8547 34.9032 66.0828 33.9829C66.9266 30.6392 67.763 27.2933 68.5922 23.9454C68.9172 22.6142 69.2469 21.2813 69.5594 20.0251H69.5547Z" fill="#FBE303"/>
<path d="M0.0140381 1.82819C0.729663 0.814132 1.75623 0.712569 2.89685 0.734444C5.83591 0.779757 8.77654 0.746944 11.7156 0.750069C13.1359 0.750069 13.6687 1.17819 13.9656 2.59226C14.5672 5.45788 15.1562 8.33132 15.7437 11.2016C16.3547 14.3266 16.9562 17.4673 17.5797 20.5954C19.2172 28.8141 20.8609 37.0308 22.5109 45.2454C22.8031 46.7032 23.1953 48.1251 24.2015 49.286C25.975 51.8173 28.489 52.8891 31.4969 52.8969C38.7562 52.9157 46.0156 52.8969 53.275 52.8969C59.1562 52.8969 65.037 52.8969 70.9172 52.8969C72.239 52.8969 73.025 53.5907 72.9968 54.6923C72.9921 55.0856 72.8482 55.4645 72.5908 55.7619C72.3335 56.0593 71.9791 56.256 71.5906 56.3173C71.3074 56.3551 71.0216 56.3702 70.7359 56.3626C57.6734 56.3626 44.6109 56.3626 31.5484 56.3626C25.7281 56.3626 20.9234 52.8735 19.4797 47.5016C18.8547 45.1469 18.4609 42.7282 17.9812 40.3344C15.7104 29.0074 13.4422 17.6772 11.1765 6.34382C11.039 5.65788 11.0859 4.74694 10.6625 4.35788C10.1937 3.92507 9.27029 4.23444 8.54529 4.22819C6.56873 4.21101 4.58904 4.18444 2.60779 4.22819C1.5281 4.26569 0.612476 4.07038 0.0140381 3.07819V1.82819Z" fill="#454950"/>
<path d="M20.8953 68.575C20.8929 67.4344 21.1153 66.3044 21.5496 65.2497C21.9839 64.195 22.6217 63.2361 23.4266 62.4279C25.0522 60.7956 27.2596 59.8759 29.5633 59.8711C31.8669 59.8663 34.0781 60.7769 35.7104 62.4025C36.5186 63.2074 37.1604 64.1636 37.5991 65.2165C38.0378 66.2694 38.2648 67.3984 38.2672 68.5391C38.2719 70.8427 37.3614 73.0539 35.7358 74.6862C34.1103 76.3185 31.9028 77.2382 29.5992 77.243C27.2955 77.2478 25.0843 76.3372 23.452 74.7116C21.8197 73.0861 20.9 70.8787 20.8953 68.575Z" fill="#454950"/>
<path d="M73.0124 68.594C73.0074 70.3133 72.4924 71.9924 71.5326 73.4188C70.5728 74.8452 69.2113 75.9548 67.6205 76.607C66.0298 77.2592 64.2812 77.4247 62.5963 77.0826C60.9114 76.7405 59.3659 75.9062 58.1555 74.6852C56.945 73.4643 56.1241 71.9116 55.7965 70.2238C55.469 68.536 55.6497 66.789 56.3156 65.2039C56.9815 63.6188 58.1028 62.267 59.5375 61.3195C60.9721 60.3721 62.6557 59.8716 64.3749 59.8815C66.6741 59.8964 68.8738 60.8214 70.4926 62.4543C72.1114 64.0871 73.0174 66.2947 73.0124 68.594Z" fill="#454950"/>
</svg>
