<svg width="340" height="196" viewBox="0 0 340 196" fill="none" xmlns="http://www.w3.org/2000/svg">
<g filter="url(#filter0_d_415_8756)">
<rect width="260" height="378.613" transform="translate(40 25)" fill="white"/>
<path d="M140.609 72.3C139.176 72.3 137.966 71.9833 136.979 71.35C135.992 70.71 135.246 69.8267 134.739 68.7C134.232 67.5733 133.979 66.2733 133.979 64.8C133.979 63.3267 134.232 62.0267 134.739 60.9C135.246 59.7733 135.992 58.8933 136.979 58.26C137.966 57.62 139.176 57.3 140.609 57.3C142.049 57.3 143.259 57.62 144.239 58.26C145.226 58.8933 145.972 59.7733 146.479 60.9C146.992 62.0267 147.249 63.3267 147.249 64.8C147.249 66.2733 146.992 67.5733 146.479 68.7C145.972 69.8267 145.226 70.71 144.239 71.35C143.259 71.9833 142.049 72.3 140.609 72.3ZM140.609 70.89C141.736 70.89 142.676 70.6333 143.429 70.12C144.182 69.6067 144.746 68.8933 145.119 67.98C145.499 67.06 145.689 66 145.689 64.8C145.689 63.6 145.499 62.5433 145.119 61.63C144.746 60.7167 144.182 60.0033 143.429 59.49C142.676 58.9767 141.736 58.7167 140.609 58.71C139.482 58.71 138.546 58.9667 137.799 59.48C137.052 59.9933 136.489 60.71 136.109 61.63C135.736 62.5433 135.546 63.6 135.539 64.8C135.532 66 135.716 67.0567 136.089 67.97C136.469 68.8767 137.036 69.59 137.789 70.11C138.542 70.6233 139.482 70.8833 140.609 70.89ZM154.372 76.5V72.21C153.318 72.3767 152.358 72.2633 151.492 71.87C150.625 71.47 149.935 70.8233 149.422 69.93C148.908 69.0367 148.652 67.93 148.652 66.61C148.652 65.29 148.908 64.1833 149.422 63.29C149.935 62.39 150.625 61.74 151.492 61.34C152.358 60.94 153.318 60.8233 154.372 60.99V57.68H155.732V60.99C156.785 60.8233 157.745 60.94 158.612 61.34C159.478 61.74 160.168 62.39 160.682 63.29C161.195 64.1833 161.452 65.29 161.452 66.61C161.452 67.93 161.195 69.0367 160.682 69.93C160.168 70.8233 159.478 71.47 158.612 71.87C157.745 72.2633 156.785 72.3767 155.732 72.21V76.5H154.372ZM154.372 70.84V62.37C153.832 62.2767 153.312 62.2933 152.812 62.42C152.312 62.54 151.862 62.7767 151.462 63.13C151.062 63.4767 150.745 63.94 150.512 64.52C150.285 65.0933 150.172 65.79 150.172 66.61C150.172 67.43 150.288 68.13 150.522 68.71C150.755 69.2833 151.072 69.7433 151.472 70.09C151.872 70.4367 152.322 70.67 152.822 70.79C153.322 70.91 153.838 70.9267 154.372 70.84ZM155.732 70.84C156.265 70.9267 156.782 70.91 157.282 70.79C157.782 70.67 158.232 70.44 158.632 70.1C159.032 69.7533 159.348 69.2933 159.582 68.72C159.815 68.14 159.932 67.4367 159.932 66.61C159.932 65.7833 159.815 65.0833 159.582 64.51C159.355 63.93 159.042 63.4667 158.642 63.12C158.242 62.7733 157.792 62.54 157.292 62.42C156.792 62.2933 156.272 62.2767 155.732 62.37V70.84ZM168.216 72.3C167.163 72.3 166.249 72.0667 165.476 71.6C164.709 71.1333 164.113 70.4767 163.686 69.63C163.259 68.7833 163.046 67.79 163.046 66.65C163.046 65.47 163.256 64.45 163.676 63.59C164.096 62.73 164.686 62.0667 165.446 61.6C166.213 61.1333 167.116 60.9 168.156 60.9C169.223 60.9 170.133 61.1467 170.886 61.64C171.639 62.1267 172.209 62.8267 172.596 63.74C172.983 64.6533 173.159 65.7433 173.126 67.01H171.626V66.49C171.599 65.09 171.296 64.0333 170.716 63.32C170.143 62.6067 169.303 62.25 168.196 62.25C167.036 62.25 166.146 62.6267 165.526 63.38C164.913 64.1333 164.606 65.2067 164.606 66.6C164.606 67.96 164.913 69.0167 165.526 69.77C166.146 70.5167 167.023 70.89 168.156 70.89C168.929 70.89 169.603 70.7133 170.176 70.36C170.756 70 171.213 69.4833 171.546 68.81L172.916 69.34C172.489 70.28 171.859 71.01 171.026 71.53C170.199 72.0433 169.263 72.3 168.216 72.3ZM164.086 67.01V65.78H172.336V67.01H164.086ZM180.195 72.3C179.202 72.3 178.362 72.05 177.675 71.55C176.989 71.0433 176.469 70.36 176.115 69.5C175.762 68.6333 175.585 67.6633 175.585 66.59C175.585 65.4967 175.762 64.5233 176.115 63.67C176.475 62.81 177.002 62.1333 177.695 61.64C178.389 61.1467 179.242 60.9 180.255 60.9C181.242 60.9 182.089 61.15 182.795 61.65C183.502 62.15 184.042 62.83 184.415 63.69C184.795 64.55 184.985 65.5167 184.985 66.59C184.985 67.67 184.795 68.64 184.415 69.5C184.035 70.36 183.489 71.0433 182.775 71.55C182.062 72.05 181.202 72.3 180.195 72.3ZM175.335 76.8V61.2H176.655V69.33H176.815V76.8H175.335ZM180.045 70.93C180.799 70.93 181.425 70.74 181.925 70.36C182.425 69.98 182.799 69.4633 183.045 68.81C183.299 68.15 183.425 67.41 183.425 66.59C183.425 65.7767 183.302 65.0433 183.055 64.39C182.809 63.7367 182.432 63.22 181.925 62.84C181.425 62.46 180.789 62.27 180.015 62.27C179.262 62.27 178.635 62.4533 178.135 62.82C177.642 63.1867 177.272 63.6967 177.025 64.35C176.779 64.9967 176.655 65.7433 176.655 66.59C176.655 67.4233 176.779 68.17 177.025 68.83C177.272 69.4833 177.645 69.9967 178.145 70.37C178.645 70.7433 179.279 70.93 180.045 70.93ZM190.111 72V62.56H186.281V61.2H195.411V62.56H191.581V72H190.111ZM199.998 72.3C199.184 72.3 198.501 72.1533 197.948 71.86C197.401 71.5667 196.991 71.1767 196.718 70.69C196.444 70.2033 196.308 69.6733 196.308 69.1C196.308 68.5133 196.424 68.0133 196.658 67.6C196.898 67.18 197.221 66.8367 197.628 66.57C198.041 66.3033 198.518 66.1 199.058 65.96C199.604 65.8267 200.208 65.71 200.868 65.61C201.534 65.5033 202.184 65.4133 202.818 65.34C203.458 65.26 204.018 65.1833 204.498 65.11L203.978 65.43C203.998 64.3633 203.791 63.5733 203.358 63.06C202.924 62.5467 202.171 62.29 201.098 62.29C200.358 62.29 199.731 62.4567 199.218 62.79C198.711 63.1233 198.354 63.65 198.148 64.37L196.718 63.95C196.964 62.9833 197.461 62.2333 198.208 61.7C198.954 61.1667 199.924 60.9 201.118 60.9C202.104 60.9 202.941 61.0867 203.628 61.46C204.321 61.8267 204.811 62.36 205.098 63.06C205.231 63.3733 205.318 63.7233 205.358 64.11C205.398 64.4967 205.418 64.89 205.418 65.29V72H204.108V69.29L204.488 69.45C204.121 70.3767 203.551 71.0833 202.778 71.57C202.004 72.0567 201.078 72.3 199.998 72.3ZM200.168 71.03C200.854 71.03 201.454 70.9067 201.968 70.66C202.481 70.4133 202.894 70.0767 203.208 69.65C203.521 69.2167 203.724 68.73 203.818 68.19C203.898 67.8433 203.941 67.4633 203.948 67.05C203.954 66.63 203.958 66.3167 203.958 66.11L204.518 66.4C204.018 66.4667 203.474 66.5333 202.888 66.6C202.308 66.6667 201.734 66.7433 201.168 66.83C200.608 66.9167 200.101 67.02 199.648 67.14C199.341 67.2267 199.044 67.35 198.758 67.51C198.471 67.6633 198.234 67.87 198.048 68.13C197.868 68.39 197.778 68.7133 197.778 69.1C197.778 69.4133 197.854 69.7167 198.008 70.01C198.168 70.3033 198.421 70.5467 198.768 70.74C199.121 70.9333 199.588 71.03 200.168 71.03Z" fill="#2F323A"/>
<rect x="60" y="126" width="175" height="20" fill="#E9E9E9"/>
<rect x="60" y="161" width="220" height="20" fill="#E9E9E9"/>
</g>
<defs>
<filter id="filter0_d_415_8756" x="0" y="0" width="340" height="458.613" filterUnits="userSpaceOnUse" color-interpolation-filters="sRGB">
<feFlood flood-opacity="0" result="BackgroundImageFix"/>
<feColorMatrix in="SourceAlpha" type="matrix" values="0 0 0 0 0 0 0 0 0 0 0 0 0 0 0 0 0 0 127 0" result="hardAlpha"/>
<feOffset dy="15"/>
<feGaussianBlur stdDeviation="20"/>
<feComposite in2="hardAlpha" operator="out"/>
<feColorMatrix type="matrix" values="0 0 0 0 0.2625 0 0 0 0 0.24257 0 0 0 0 0.0251563 0 0 0 0.1 0"/>
<feBlend mode="normal" in2="BackgroundImageFix" result="effect1_dropShadow_415_8756"/>
<feBlend mode="normal" in="SourceGraphic" in2="effect1_dropShadow_415_8756" result="shape"/>
</filter>
</defs>
</svg>
