<svg width="340" height="344" viewBox="0 0 340 344" fill="none" xmlns="http://www.w3.org/2000/svg">
<g filter="url(#filter0_d_415_8747)">
<rect width="260" height="378.613" transform="translate(40 25)" fill="white"/>
<path d="M125.843 72V57.6H136.873V72H135.403V59.01H127.313V72H125.843ZM144.181 72.3C143.108 72.3 142.191 72.0567 141.431 71.57C140.671 71.0833 140.088 70.41 139.681 69.55C139.275 68.69 139.071 67.7033 139.071 66.59C139.071 65.4567 139.278 64.4633 139.691 63.61C140.105 62.7567 140.691 62.0933 141.451 61.62C142.218 61.14 143.128 60.9 144.181 60.9C145.261 60.9 146.181 61.1433 146.941 61.63C147.708 62.11 148.291 62.78 148.691 63.64C149.098 64.4933 149.301 65.4767 149.301 66.59C149.301 67.7233 149.098 68.72 148.691 69.58C148.285 70.4333 147.698 71.1 146.931 71.58C146.165 72.06 145.248 72.3 144.181 72.3ZM144.181 70.89C145.381 70.89 146.275 70.4933 146.861 69.7C147.448 68.9 147.741 67.8633 147.741 66.59C147.741 65.2833 147.445 64.2433 146.851 63.47C146.265 62.6967 145.375 62.31 144.181 62.31C143.375 62.31 142.708 62.4933 142.181 62.86C141.661 63.22 141.271 63.7233 141.011 64.37C140.758 65.01 140.631 65.75 140.631 66.59C140.631 67.89 140.931 68.9333 141.531 69.72C142.131 70.5 143.015 70.89 144.181 70.89ZM150.507 72V70.71C150.907 70.7833 151.211 70.7667 151.417 70.66C151.631 70.5467 151.787 70.36 151.887 70.1C151.987 69.8333 152.071 69.5033 152.137 69.11C152.244 68.4567 152.341 67.7367 152.427 66.95C152.514 66.1633 152.591 65.2967 152.657 64.35C152.731 63.3967 152.804 62.3467 152.877 61.2H160.217V72H158.757V62.61H154.237C154.191 63.3167 154.137 64.02 154.077 64.72C154.017 65.42 153.954 66.0933 153.887 66.74C153.827 67.38 153.761 67.97 153.687 68.51C153.614 69.05 153.537 69.5167 153.457 69.91C153.337 70.5033 153.177 70.9767 152.977 71.33C152.784 71.6833 152.494 71.9167 152.107 72.03C151.721 72.1433 151.187 72.1333 150.507 72ZM171.591 61.2V72H170.161V63.59L164.241 72H163.001V61.2H164.431V69.54L170.361 61.2H171.591ZM177.328 72V62.56H173.498V61.2H182.628V62.56H178.798V72H177.328ZM193.115 61.2V72H191.685V63.59L185.765 72H184.525V61.2H185.955V69.54L191.885 61.2H193.115ZM195.911 72L195.921 61.2H197.401V66.4L202.221 61.2H204.181L199.121 66.6L204.841 72H202.701L197.401 66.8V72H195.911ZM208.933 72.3C208.12 72.3 207.437 72.1533 206.883 71.86C206.337 71.5667 205.927 71.1767 205.653 70.69C205.38 70.2033 205.243 69.6733 205.243 69.1C205.243 68.5133 205.36 68.0133 205.593 67.6C205.833 67.18 206.157 66.8367 206.563 66.57C206.977 66.3033 207.453 66.1 207.993 65.96C208.54 65.8267 209.143 65.71 209.803 65.61C210.47 65.5033 211.12 65.4133 211.753 65.34C212.393 65.26 212.953 65.1833 213.433 65.11L212.913 65.43C212.933 64.3633 212.727 63.5733 212.293 63.06C211.86 62.5467 211.107 62.29 210.033 62.29C209.293 62.29 208.667 62.4567 208.153 62.79C207.647 63.1233 207.29 63.65 207.083 64.37L205.653 63.95C205.9 62.9833 206.397 62.2333 207.143 61.7C207.89 61.1667 208.86 60.9 210.053 60.9C211.04 60.9 211.877 61.0867 212.563 61.46C213.257 61.8267 213.747 62.36 214.033 63.06C214.167 63.3733 214.253 63.7233 214.293 64.11C214.333 64.4967 214.353 64.89 214.353 65.29V72H213.043V69.29L213.423 69.45C213.057 70.3767 212.487 71.0833 211.713 71.57C210.94 72.0567 210.013 72.3 208.933 72.3ZM209.103 71.03C209.79 71.03 210.39 70.9067 210.903 70.66C211.417 70.4133 211.83 70.0767 212.143 69.65C212.457 69.2167 212.66 68.73 212.753 68.19C212.833 67.8433 212.877 67.4633 212.883 67.05C212.89 66.63 212.893 66.3167 212.893 66.11L213.453 66.4C212.953 66.4667 212.41 66.5333 211.823 66.6C211.243 66.6667 210.67 66.7433 210.103 66.83C209.543 66.9167 209.037 67.02 208.583 67.14C208.277 67.2267 207.98 67.35 207.693 67.51C207.407 67.6633 207.17 67.87 206.983 68.13C206.803 68.39 206.713 68.7133 206.713 69.1C206.713 69.4133 206.79 69.7167 206.943 70.01C207.103 70.3033 207.357 70.5467 207.703 70.74C208.057 70.9333 208.523 71.03 209.103 71.03ZM67.6986 100L67.7086 89.2H69.1886V94.4L74.0086 89.2H75.9686L70.9086 94.6L76.6286 100H74.4886L69.1886 94.8V100H67.6986ZM81.9452 100.3C80.8718 100.3 79.9552 100.057 79.1952 99.57C78.4352 99.0833 77.8518 98.41 77.4452 97.55C77.0385 96.69 76.8352 95.7033 76.8352 94.59C76.8352 93.4567 77.0418 92.4633 77.4552 91.61C77.8685 90.7567 78.4552 90.0933 79.2152 89.62C79.9818 89.14 80.8918 88.9 81.9452 88.9C83.0252 88.9 83.9452 89.1433 84.7052 89.63C85.4718 90.11 86.0552 90.78 86.4552 91.64C86.8618 92.4933 87.0652 93.4767 87.0652 94.59C87.0652 95.7233 86.8618 96.72 86.4552 97.58C86.0485 98.4333 85.4618 99.1 84.6952 99.58C83.9285 100.06 83.0118 100.3 81.9452 100.3ZM81.9452 98.89C83.1452 98.89 84.0385 98.4933 84.6252 97.7C85.2118 96.9 85.5052 95.8633 85.5052 94.59C85.5052 93.2833 85.2085 92.2433 84.6152 91.47C84.0285 90.6967 83.1385 90.31 81.9452 90.31C81.1385 90.31 80.4718 90.4933 79.9452 90.86C79.4252 91.22 79.0352 91.7233 78.7752 92.37C78.5218 93.01 78.3952 93.75 78.3952 94.59C78.3952 95.89 78.6952 96.9333 79.2952 97.72C79.8952 98.5 80.7785 98.89 81.9452 98.89ZM89.2611 100V89.2H90.7311V93.89H96.8211V89.2H98.2911V100H96.8211V95.3H90.7311V100H89.2611ZM106.208 104.5V100.21C105.154 100.377 104.194 100.263 103.328 99.87C102.461 99.47 101.771 98.8233 101.258 97.93C100.744 97.0367 100.488 95.93 100.488 94.61C100.488 93.29 100.744 92.1833 101.258 91.29C101.771 90.39 102.461 89.74 103.328 89.34C104.194 88.94 105.154 88.8233 106.208 88.99V85.68H107.568V88.99C108.621 88.8233 109.581 88.94 110.448 89.34C111.314 89.74 112.004 90.39 112.518 91.29C113.031 92.1833 113.288 93.29 113.288 94.61C113.288 95.93 113.031 97.0367 112.518 97.93C112.004 98.8233 111.314 99.47 110.448 99.87C109.581 100.263 108.621 100.377 107.568 100.21V104.5H106.208ZM106.208 98.84V90.37C105.668 90.2767 105.148 90.2933 104.648 90.42C104.148 90.54 103.698 90.7767 103.298 91.13C102.898 91.4767 102.581 91.94 102.348 92.52C102.121 93.0933 102.008 93.79 102.008 94.61C102.008 95.43 102.124 96.13 102.358 96.71C102.591 97.2833 102.908 97.7433 103.308 98.09C103.708 98.4367 104.158 98.67 104.658 98.79C105.158 98.91 105.674 98.9267 106.208 98.84ZM107.568 98.84C108.101 98.9267 108.618 98.91 109.118 98.79C109.618 98.67 110.068 98.44 110.468 98.1C110.868 97.7533 111.184 97.2933 111.418 96.72C111.651 96.14 111.768 95.4367 111.768 94.61C111.768 93.7833 111.651 93.0833 111.418 92.51C111.191 91.93 110.878 91.4667 110.477 91.12C110.078 90.7733 109.628 90.54 109.128 90.42C108.628 90.2933 108.108 90.2767 107.568 90.37V98.84ZM124.062 89.2V100H122.632V91.59L116.712 100H115.472V89.2H116.902V97.54L122.832 89.2H124.062ZM126.069 102.4V98.74C126.682 98.74 127.122 98.5433 127.389 98.15C127.655 97.75 127.872 97.1133 128.039 96.24C128.152 95.6733 128.245 95.0633 128.319 94.41C128.392 93.7567 128.455 93.01 128.509 92.17C128.562 91.3233 128.612 90.3333 128.659 89.2H135.799V98.74H136.839V102.4H135.419V100H127.479V102.4H126.069ZM128.559 98.74H134.339V90.46H130.019C129.999 90.9667 129.969 91.5033 129.929 92.07C129.895 92.6367 129.852 93.2033 129.799 93.77C129.752 94.3367 129.695 94.87 129.629 95.37C129.569 95.8633 129.495 96.2967 129.409 96.67C129.309 97.15 129.199 97.56 129.079 97.9C128.965 98.24 128.792 98.52 128.559 98.74ZM143.411 100.3C142.358 100.3 141.445 100.067 140.671 99.6C139.905 99.1333 139.308 98.4767 138.881 97.63C138.455 96.7833 138.241 95.79 138.241 94.65C138.241 93.47 138.451 92.45 138.871 91.59C139.291 90.73 139.881 90.0667 140.641 89.6C141.408 89.1333 142.311 88.9 143.351 88.9C144.418 88.9 145.328 89.1467 146.081 89.64C146.835 90.1267 147.405 90.8267 147.791 91.74C148.178 92.6533 148.355 93.7433 148.321 95.01H146.821V94.49C146.795 93.09 146.491 92.0333 145.911 91.32C145.338 90.6067 144.498 90.25 143.391 90.25C142.231 90.25 141.341 90.6267 140.721 91.38C140.108 92.1333 139.801 93.2067 139.801 94.6C139.801 95.96 140.108 97.0167 140.721 97.77C141.341 98.5167 142.218 98.89 143.351 98.89C144.125 98.89 144.798 98.7133 145.371 98.36C145.951 98 146.408 97.4833 146.741 96.81L148.111 97.34C147.685 98.28 147.055 99.01 146.221 99.53C145.395 100.043 144.458 100.3 143.411 100.3ZM139.281 95.01V93.78H147.531V95.01H139.281ZM150.531 100V89.2H152.001V93.89H158.091V89.2H159.561V100H158.091V95.3H152.001V100H150.531ZM171.637 101.87V100H162.347V89.2H163.817V98.59H169.467V89.2H170.937V98.64H173.107V101.87H171.637ZM183.281 89.2V100H181.851V91.59L175.931 100H174.691V89.2H176.121V97.54L182.051 89.2H183.281ZM189.178 100.3C188.364 100.3 187.681 100.153 187.128 99.86C186.581 99.5667 186.171 99.1767 185.898 98.69C185.624 98.2033 185.488 97.6733 185.488 97.1C185.488 96.5133 185.604 96.0133 185.838 95.6C186.078 95.18 186.401 94.8367 186.808 94.57C187.221 94.3033 187.698 94.1 188.238 93.96C188.784 93.8267 189.388 93.71 190.048 93.61C190.714 93.5033 191.364 93.4133 191.998 93.34C192.638 93.26 193.198 93.1833 193.678 93.11L193.158 93.43C193.178 92.3633 192.971 91.5733 192.538 91.06C192.104 90.5467 191.351 90.29 190.278 90.29C189.538 90.29 188.911 90.4567 188.398 90.79C187.891 91.1233 187.534 91.65 187.327 92.37L185.898 91.95C186.144 90.9833 186.641 90.2333 187.388 89.7C188.134 89.1667 189.104 88.9 190.298 88.9C191.284 88.9 192.121 89.0867 192.808 89.46C193.501 89.8267 193.991 90.36 194.278 91.06C194.411 91.3733 194.498 91.7233 194.538 92.11C194.578 92.4967 194.598 92.89 194.598 93.29V100H193.288V97.29L193.668 97.45C193.301 98.3767 192.731 99.0833 191.958 99.57C191.184 100.057 190.258 100.3 189.178 100.3ZM189.348 99.03C190.034 99.03 190.634 98.9067 191.148 98.66C191.661 98.4133 192.074 98.0767 192.388 97.65C192.701 97.2167 192.904 96.73 192.998 96.19C193.078 95.8433 193.121 95.4633 193.128 95.05C193.134 94.63 193.138 94.3167 193.138 94.11L193.698 94.4C193.198 94.4667 192.654 94.5333 192.068 94.6C191.488 94.6667 190.914 94.7433 190.348 94.83C189.788 94.9167 189.281 95.02 188.828 95.14C188.521 95.2267 188.224 95.35 187.938 95.51C187.651 95.6633 187.414 95.87 187.228 96.13C187.048 96.39 186.958 96.7133 186.958 97.1C186.958 97.4133 187.034 97.7167 187.188 98.01C187.348 98.3033 187.601 98.5467 187.948 98.74C188.301 98.9333 188.768 99.03 189.348 99.03ZM196.201 100V98.71C196.601 98.7833 196.904 98.7667 197.111 98.66C197.324 98.5467 197.481 98.36 197.581 98.1C197.681 97.8333 197.764 97.5033 197.831 97.11C197.937 96.4567 198.034 95.7367 198.121 94.95C198.207 94.1633 198.284 93.2967 198.351 92.35C198.424 91.3967 198.497 90.3467 198.571 89.2H205.911V100H204.451V90.61H199.931C199.884 91.3167 199.831 92.02 199.771 92.72C199.711 93.42 199.647 94.0933 199.581 94.74C199.521 95.38 199.454 95.97 199.381 96.51C199.307 97.05 199.231 97.5167 199.151 97.91C199.031 98.5033 198.871 98.9767 198.671 99.33C198.477 99.6833 198.187 99.9167 197.801 100.03C197.414 100.143 196.881 100.133 196.201 100ZM208.715 100L208.695 89.2H210.175V93.27H212.705C213.018 93.27 213.325 93.2767 213.625 93.29C213.931 93.3033 214.201 93.33 214.435 93.37C214.968 93.47 215.441 93.6467 215.855 93.9C216.275 94.1533 216.601 94.5033 216.835 94.95C217.075 95.3967 217.195 95.9567 217.195 96.63C217.195 97.5567 216.955 98.2867 216.475 98.82C216.001 99.3533 215.401 99.7 214.675 99.86C214.401 99.92 214.105 99.96 213.785 99.98C213.465 99.9933 213.148 100 212.835 100H208.715ZM210.175 98.74H212.775C213.001 98.74 213.255 98.7333 213.535 98.72C213.815 98.7067 214.061 98.67 214.275 98.61C214.628 98.51 214.948 98.31 215.235 98.01C215.528 97.7033 215.675 97.2433 215.675 96.63C215.675 96.0233 215.535 95.5667 215.255 95.26C214.975 94.9467 214.601 94.74 214.135 94.64C213.928 94.5933 213.705 94.5633 213.465 94.55C213.225 94.5367 212.995 94.53 212.775 94.53H210.175V98.74ZM219.085 100V89.2H220.555V93.89H226.645V89.2H228.115V100H226.645V95.3H220.555V100H219.085ZM235.422 100.3C234.348 100.3 233.432 100.057 232.672 99.57C231.912 99.0833 231.328 98.41 230.922 97.55C230.515 96.69 230.312 95.7033 230.312 94.59C230.312 93.4567 230.518 92.4633 230.932 91.61C231.345 90.7567 231.932 90.0933 232.692 89.62C233.458 89.14 234.368 88.9 235.422 88.9C236.502 88.9 237.422 89.1433 238.182 89.63C238.948 90.11 239.532 90.78 239.932 91.64C240.338 92.4933 240.542 93.4767 240.542 94.59C240.542 95.7233 240.338 96.72 239.932 97.58C239.525 98.4333 238.938 99.1 238.172 99.58C237.405 100.06 236.488 100.3 235.422 100.3ZM235.422 98.89C236.622 98.89 237.515 98.4933 238.102 97.7C238.688 96.9 238.982 95.8633 238.982 94.59C238.982 93.2833 238.685 92.2433 238.092 91.47C237.505 90.6967 236.615 90.31 235.422 90.31C234.615 90.31 233.948 90.4933 233.422 90.86C232.902 91.22 232.512 91.7233 232.252 92.37C231.998 93.01 231.872 93.75 231.872 94.59C231.872 95.89 232.172 96.9333 232.772 97.72C233.372 98.5 234.255 98.89 235.422 98.89ZM247.228 100.3C246.141 100.3 245.221 100.057 244.468 99.57C243.714 99.0833 243.141 98.4133 242.748 97.56C242.361 96.7 242.161 95.7133 242.148 94.6C242.161 93.4667 242.368 92.4733 242.768 91.62C243.168 90.76 243.744 90.0933 244.498 89.62C245.251 89.14 246.164 88.9 247.238 88.9C248.331 88.9 249.281 89.1667 250.088 89.7C250.901 90.2333 251.458 90.9633 251.758 91.89L250.318 92.35C250.064 91.7033 249.661 91.2033 249.108 90.85C248.561 90.49 247.934 90.31 247.228 90.31C246.434 90.31 245.778 90.4933 245.258 90.86C244.738 91.22 244.351 91.7233 244.098 92.37C243.844 93.0167 243.714 93.76 243.708 94.6C243.721 95.8933 244.021 96.9333 244.608 97.72C245.194 98.5 246.068 98.89 247.228 98.89C247.961 98.89 248.584 98.7233 249.098 98.39C249.618 98.05 250.011 97.5567 250.278 96.91L251.758 97.35C251.358 98.31 250.771 99.0433 249.998 99.55C249.224 100.05 248.301 100.3 247.228 100.3ZM256.498 100V90.56H252.668V89.2H261.798V90.56H257.968V100H256.498ZM272.285 89.2V100H270.855V91.59L264.935 100H263.695V89.2H265.125V97.54L271.055 89.2H272.285Z" fill="#2F323A"/>
<rect x="60" y="126" width="175" height="20" fill="#E9E9E9"/>
<rect x="60" y="161" width="220" height="20" fill="#E9E9E9"/>
<rect x="60" y="196" width="147" height="20" fill="#E9E9E9"/>
<rect x="60" y="231" width="196" height="20" fill="#E9E9E9"/>
<path fill-rule="evenodd" clip-rule="evenodd" d="M245.071 202.049C241.294 202.495 236.966 206.82 232.696 214.416C231.997 215.66 231.976 215.825 232.47 216.173C232.812 216.414 233.484 216.43 233.886 216.207C234.074 216.103 234.37 215.693 234.778 214.974C236.958 211.134 239.759 207.355 241.729 205.6C242.36 205.039 243.668 204.142 244.152 203.942C245.497 203.382 246.406 203.439 247.399 204.145C249.096 205.351 250.328 208.283 250.854 212.37C251.005 213.542 251.018 218.044 250.873 218.891L250.781 219.423L249.789 219.734C246.807 220.67 243.804 222.314 241.499 224.273C237.581 227.602 235.048 232.252 235.339 235.577C235.652 239.147 238.851 240.033 243.082 237.721C247.805 235.14 251.328 229.368 252.627 222.08C252.754 221.367 252.896 220.731 252.942 220.667C253.009 220.575 253.251 220.55 254.068 220.553C254.989 220.556 255.184 220.582 255.752 220.782C256.506 221.048 257.199 221.548 257.525 222.062C257.778 222.461 257.815 222.932 257.666 223.849C257.579 224.386 257.587 224.418 257.859 224.609C258.251 224.886 258.656 224.942 259.122 224.786C259.584 224.631 259.78 224.333 259.997 223.466C260.52 221.367 262.036 218.705 263.104 218.011C263.99 217.435 264.451 217.558 265.976 218.782C267.601 220.085 268.358 220.54 269.644 220.985C270.256 221.197 271.056 221.428 271.422 221.497C272.429 221.689 274.576 221.729 275.623 221.577C277.628 221.284 279.767 220.435 279.976 219.849C280.149 219.362 279.362 218.799 278.681 218.923C278.534 218.95 278.137 219.105 277.798 219.267C275.043 220.59 271.305 220.37 268.982 218.749C268.55 218.448 267.736 217.843 267.172 217.404C265.971 216.47 265.315 216.191 264.197 216.141C263.069 216.09 262.477 216.274 261.49 216.98C260.579 217.632 259.844 218.527 259.153 219.825L258.789 220.509L258.163 220.088C257.045 219.335 255.612 218.945 253.971 218.945H253.046L253.125 218.651C253.256 218.166 253.215 213.508 253.07 212.331C252.501 207.737 251.101 204.555 248.982 203.041C248.292 202.547 247.357 202.158 246.675 202.079C245.818 201.981 245.672 201.978 245.071 202.049ZM230.751 221.035C230.421 221.12 230.087 221.401 230.021 221.648C229.939 221.956 230.141 222.25 230.687 222.62L231.085 222.89L230.654 223.207C230.082 223.626 229.939 223.839 230.021 224.147C230.097 224.432 230.326 224.608 230.779 224.729C231.193 224.841 231.58 224.728 232.166 224.325L232.637 224L233.115 224.33C233.651 224.701 234.09 224.82 234.577 224.726C235.03 224.639 235.295 224.369 235.298 223.992C235.3 223.729 235.217 223.61 234.789 223.265L234.278 222.853L234.789 222.468C235.212 222.149 235.301 222.031 235.301 221.783C235.301 221.422 235.09 221.191 234.641 221.06C234.171 220.923 233.809 221.011 233.202 221.412L232.676 221.759L232.306 221.49C231.75 221.085 231.191 220.922 230.751 221.035ZM250.428 222.017C250.194 223.259 249.644 225.292 249.223 226.471C247.224 232.074 244.161 235.723 240.274 237.134C239.257 237.503 238.634 237.52 238.197 237.19C237.76 236.86 237.616 236.471 237.551 235.444C237.459 233.996 237.94 232.251 238.923 230.456C241.105 226.474 244.843 223.34 249.525 221.567C250.033 221.375 250.478 221.217 250.514 221.216C250.55 221.215 250.512 221.576 250.428 222.017Z" fill="#212121"/>
</g>
<defs>
<filter id="filter0_d_415_8747" x="0" y="0" width="340" height="458.613" filterUnits="userSpaceOnUse" color-interpolation-filters="sRGB">
<feFlood flood-opacity="0" result="BackgroundImageFix"/>
<feColorMatrix in="SourceAlpha" type="matrix" values="0 0 0 0 0 0 0 0 0 0 0 0 0 0 0 0 0 0 127 0" result="hardAlpha"/>
<feOffset dy="15"/>
<feGaussianBlur stdDeviation="20"/>
<feComposite in2="hardAlpha" operator="out"/>
<feColorMatrix type="matrix" values="0 0 0 0 0.2625 0 0 0 0 0.24257 0 0 0 0 0.0251563 0 0 0 0.1 0"/>
<feBlend mode="normal" in2="BackgroundImageFix" result="effect1_dropShadow_415_8747"/>
<feBlend mode="normal" in="SourceGraphic" in2="effect1_dropShadow_415_8747" result="shape"/>
</filter>
</defs>
</svg>
