<svg width="340" height="344" viewBox="0 0 340 344" fill="none" xmlns="http://www.w3.org/2000/svg">
<g filter="url(#filter0_d_415_8738)">
<rect width="260" height="378.613" transform="translate(40 25)" fill="white"/>
<path d="M76.8003 72.3C75.367 72.3 74.157 71.9833 73.1703 71.35C72.1836 70.71 71.437 69.8267 70.9303 68.7C70.4236 67.5733 70.1703 66.2733 70.1703 64.8C70.1703 63.3267 70.4236 62.0267 70.9303 60.9C71.437 59.7733 72.1836 58.8933 73.1703 58.26C74.157 57.62 75.367 57.3 76.8003 57.3C78.2403 57.3 79.4503 57.62 80.4303 58.26C81.417 58.8933 82.1636 59.7733 82.6703 60.9C83.1836 62.0267 83.4403 63.3267 83.4403 64.8C83.4403 66.2733 83.1836 67.5733 82.6703 68.7C82.1636 69.8267 81.417 70.71 80.4303 71.35C79.4503 71.9833 78.2403 72.3 76.8003 72.3ZM76.8003 70.89C77.927 70.89 78.867 70.6333 79.6203 70.12C80.3736 69.6067 80.937 68.8933 81.3103 67.98C81.6903 67.06 81.8803 66 81.8803 64.8C81.8803 63.6 81.6903 62.5433 81.3103 61.63C80.937 60.7167 80.3736 60.0033 79.6203 59.49C78.867 58.9767 77.927 58.7167 76.8003 58.71C75.6736 58.71 74.737 58.9667 73.9903 59.48C73.2436 59.9933 72.6803 60.71 72.3003 61.63C71.927 62.5433 71.737 63.6 71.7303 64.8C71.7236 66 71.907 67.0567 72.2803 67.97C72.6603 68.8767 73.227 69.59 73.9803 70.11C74.7336 70.6233 75.6736 70.8833 76.8003 70.89ZM90.563 76.5V72.21C89.5096 72.3767 88.5496 72.2633 87.683 71.87C86.8163 71.47 86.1263 70.8233 85.613 69.93C85.0996 69.0367 84.843 67.93 84.843 66.61C84.843 65.29 85.0996 64.1833 85.613 63.29C86.1263 62.39 86.8163 61.74 87.683 61.34C88.5496 60.94 89.5096 60.8233 90.563 60.99V57.68H91.923V60.99C92.9763 60.8233 93.9363 60.94 94.803 61.34C95.6696 61.74 96.3596 62.39 96.873 63.29C97.3863 64.1833 97.643 65.29 97.643 66.61C97.643 67.93 97.3863 69.0367 96.873 69.93C96.3596 70.8233 95.6696 71.47 94.803 71.87C93.9363 72.2633 92.9763 72.3767 91.923 72.21V76.5H90.563ZM90.563 70.84V62.37C90.023 62.2767 89.503 62.2933 89.003 62.42C88.503 62.54 88.053 62.7767 87.653 63.13C87.253 63.4767 86.9363 63.94 86.703 64.52C86.4763 65.0933 86.363 65.79 86.363 66.61C86.363 67.43 86.4796 68.13 86.713 68.71C86.9463 69.2833 87.263 69.7433 87.663 70.09C88.063 70.4367 88.513 70.67 89.013 70.79C89.513 70.91 90.0296 70.9267 90.563 70.84ZM91.923 70.84C92.4563 70.9267 92.973 70.91 93.473 70.79C93.973 70.67 94.423 70.44 94.823 70.1C95.223 69.7533 95.5396 69.2933 95.773 68.72C96.0063 68.14 96.123 67.4367 96.123 66.61C96.123 65.7833 96.0063 65.0833 95.773 64.51C95.5463 63.93 95.233 63.4667 94.833 63.12C94.433 62.7733 93.983 62.54 93.483 62.42C92.983 62.2933 92.463 62.2767 91.923 62.37V70.84ZM104.408 72.3C103.354 72.3 102.441 72.0667 101.668 71.6C100.901 71.1333 100.304 70.4767 99.8775 69.63C99.4508 68.7833 99.2375 67.79 99.2375 66.65C99.2375 65.47 99.4475 64.45 99.8675 63.59C100.288 62.73 100.878 62.0667 101.638 61.6C102.404 61.1333 103.308 60.9 104.348 60.9C105.414 60.9 106.324 61.1467 107.078 61.64C107.831 62.1267 108.401 62.8267 108.788 63.74C109.174 64.6533 109.351 65.7433 109.318 67.01H107.818V66.49C107.791 65.09 107.488 64.0333 106.908 63.32C106.334 62.6067 105.494 62.25 104.388 62.25C103.228 62.25 102.338 62.6267 101.718 63.38C101.104 64.1333 100.798 65.2067 100.798 66.6C100.798 67.96 101.104 69.0167 101.718 69.77C102.338 70.5167 103.214 70.89 104.348 70.89C105.121 70.89 105.794 70.7133 106.368 70.36C106.948 70 107.404 69.4833 107.738 68.81L109.108 69.34C108.681 70.28 108.051 71.01 107.218 71.53C106.391 72.0433 105.454 72.3 104.408 72.3ZM100.278 67.01V65.78H108.528V67.01H100.278ZM116.387 72.3C115.393 72.3 114.553 72.05 113.867 71.55C113.18 71.0433 112.66 70.36 112.307 69.5C111.953 68.6333 111.777 67.6633 111.777 66.59C111.777 65.4967 111.953 64.5233 112.307 63.67C112.667 62.81 113.193 62.1333 113.887 61.64C114.58 61.1467 115.433 60.9 116.447 60.9C117.433 60.9 118.28 61.15 118.987 61.65C119.693 62.15 120.233 62.83 120.607 63.69C120.987 64.55 121.177 65.5167 121.177 66.59C121.177 67.67 120.987 68.64 120.607 69.5C120.227 70.36 119.68 71.0433 118.967 71.55C118.253 72.05 117.393 72.3 116.387 72.3ZM111.527 76.8V61.2H112.847V69.33H113.007V76.8H111.527ZM116.237 70.93C116.99 70.93 117.617 70.74 118.117 70.36C118.617 69.98 118.99 69.4633 119.237 68.81C119.49 68.15 119.617 67.41 119.617 66.59C119.617 65.7767 119.493 65.0433 119.247 64.39C119 63.7367 118.623 63.22 118.117 62.84C117.617 62.46 116.98 62.27 116.207 62.27C115.453 62.27 114.827 62.4533 114.327 62.82C113.833 63.1867 113.463 63.6967 113.217 64.35C112.97 64.9967 112.847 65.7433 112.847 66.59C112.847 67.4233 112.97 68.17 113.217 68.83C113.463 69.4833 113.837 69.9967 114.337 70.37C114.837 70.7433 115.47 70.93 116.237 70.93ZM126.303 72V62.56H122.473V61.2H131.603V62.56H127.773V72H126.303ZM136.189 72.3C135.376 72.3 134.693 72.1533 134.139 71.86C133.593 71.5667 133.183 71.1767 132.909 70.69C132.636 70.2033 132.499 69.6733 132.499 69.1C132.499 68.5133 132.616 68.0133 132.849 67.6C133.089 67.18 133.413 66.8367 133.819 66.57C134.233 66.3033 134.709 66.1 135.249 65.96C135.796 65.8267 136.399 65.71 137.059 65.61C137.726 65.5033 138.376 65.4133 139.009 65.34C139.649 65.26 140.209 65.1833 140.689 65.11L140.169 65.43C140.189 64.3633 139.983 63.5733 139.549 63.06C139.116 62.5467 138.363 62.29 137.289 62.29C136.549 62.29 135.923 62.4567 135.409 62.79C134.903 63.1233 134.546 63.65 134.339 64.37L132.909 63.95C133.156 62.9833 133.653 62.2333 134.399 61.7C135.146 61.1667 136.116 60.9 137.309 60.9C138.296 60.9 139.133 61.0867 139.819 61.46C140.513 61.8267 141.003 62.36 141.289 63.06C141.423 63.3733 141.509 63.7233 141.549 64.11C141.589 64.4967 141.609 64.89 141.609 65.29V72H140.299V69.29L140.679 69.45C140.313 70.3767 139.743 71.0833 138.969 71.57C138.196 72.0567 137.269 72.3 136.189 72.3ZM136.359 71.03C137.046 71.03 137.646 70.9067 138.159 70.66C138.673 70.4133 139.086 70.0767 139.399 69.65C139.713 69.2167 139.916 68.73 140.009 68.19C140.089 67.8433 140.133 67.4633 140.139 67.05C140.146 66.63 140.149 66.3167 140.149 66.11L140.709 66.4C140.209 66.4667 139.666 66.5333 139.079 66.6C138.499 66.6667 137.926 66.7433 137.359 66.83C136.799 66.9167 136.293 67.02 135.839 67.14C135.533 67.2267 135.236 67.35 134.949 67.51C134.663 67.6633 134.426 67.87 134.239 68.13C134.059 68.39 133.969 68.7133 133.969 69.1C133.969 69.4133 134.046 69.7167 134.199 70.01C134.359 70.3033 134.613 70.5467 134.959 70.74C135.313 70.9333 135.779 71.03 136.359 71.03ZM155.306 70.94L151.846 66.59L155.306 62.25L156.196 62.94L153.286 66.59L156.196 70.25L155.306 70.94ZM151.876 70.94L148.416 66.59L151.876 62.25L152.766 62.94L149.846 66.59L152.766 70.25L151.876 70.94ZM158.92 72V57.6H167.81V59.01H160.39V63.2H164.48C164.62 63.2 164.776 63.2067 164.95 63.22C165.13 63.2267 165.31 63.2433 165.49 63.27C166.23 63.37 166.86 63.6233 167.38 64.03C167.906 64.4367 168.306 64.95 168.58 65.57C168.86 66.19 169 66.8667 169 67.6C169 68.3333 168.86 69.01 168.58 69.63C168.306 70.25 167.906 70.7633 167.38 71.17C166.86 71.5767 166.23 71.83 165.49 71.93C165.31 71.95 165.13 71.9667 164.95 71.98C164.776 71.9933 164.62 72 164.48 72H158.92ZM160.39 70.59H164.44C164.56 70.59 164.7 70.5833 164.86 70.57C165.02 70.5567 165.176 70.5367 165.33 70.51C166.07 70.3633 166.613 70.01 166.96 69.45C167.313 68.8833 167.49 68.2667 167.49 67.6C167.49 66.9267 167.313 66.31 166.96 65.75C166.613 65.19 166.07 64.8367 165.33 64.69C165.176 64.6567 165.02 64.6367 164.86 64.63C164.7 64.6167 164.56 64.61 164.44 64.61H160.39V70.59ZM175.56 72.3C174.507 72.3 173.593 72.0667 172.82 71.6C172.053 71.1333 171.457 70.4767 171.03 69.63C170.603 68.7833 170.39 67.79 170.39 66.65C170.39 65.47 170.6 64.45 171.02 63.59C171.44 62.73 172.03 62.0667 172.79 61.6C173.557 61.1333 174.46 60.9 175.5 60.9C176.567 60.9 177.477 61.1467 178.23 61.64C178.983 62.1267 179.553 62.8267 179.94 63.74C180.327 64.6533 180.503 65.7433 180.47 67.01H178.97V66.49C178.943 65.09 178.64 64.0333 178.06 63.32C177.487 62.6067 176.647 62.25 175.54 62.25C174.38 62.25 173.49 62.6267 172.87 63.38C172.257 64.1333 171.95 65.2067 171.95 66.6C171.95 67.96 172.257 69.0167 172.87 69.77C173.49 70.5167 174.367 70.89 175.5 70.89C176.273 70.89 176.947 70.7133 177.52 70.36C178.1 70 178.557 69.4833 178.89 68.81L180.26 69.34C179.833 70.28 179.203 71.01 178.37 71.53C177.543 72.0433 176.607 72.3 175.56 72.3ZM171.43 67.01V65.78H179.68V67.01H171.43ZM186.188 72.3C185.102 72.3 184.152 72.0633 183.338 71.59C182.532 71.11 181.895 70.4467 181.428 69.6L182.608 68.85C183.002 69.5167 183.492 70.0233 184.078 70.37C184.665 70.7167 185.338 70.89 186.098 70.89C186.892 70.89 187.528 70.7067 188.008 70.34C188.488 69.9733 188.728 69.47 188.728 68.83C188.728 68.39 188.625 68.04 188.418 67.78C188.218 67.52 187.912 67.3333 187.498 67.22C187.092 67.1067 186.582 67.05 185.968 67.05H184.688V65.79H185.948C186.695 65.79 187.295 65.6567 187.748 65.39C188.208 65.1167 188.438 64.69 188.438 64.11C188.438 63.4967 188.208 63.0433 187.748 62.75C187.295 62.45 186.752 62.3 186.118 62.3C185.478 62.3 184.872 62.4333 184.298 62.7C183.732 62.96 183.255 63.2967 182.868 63.71L181.928 62.72C182.468 62.1267 183.098 61.6767 183.818 61.37C184.545 61.0567 185.348 60.9 186.228 60.9C186.922 60.9 187.548 61.0233 188.108 61.27C188.675 61.51 189.122 61.8633 189.448 62.33C189.782 62.7967 189.948 63.3567 189.948 64.01C189.948 64.6233 189.798 65.1533 189.498 65.6C189.205 66.0467 188.788 66.4167 188.248 66.71L188.168 66.16C188.635 66.2467 189.022 66.4333 189.328 66.72C189.635 67.0067 189.862 67.35 190.008 67.75C190.155 68.15 190.228 68.5567 190.228 68.97C190.228 69.6567 190.048 70.25 189.688 70.75C189.335 71.2433 188.852 71.6267 188.238 71.9C187.632 72.1667 186.948 72.3 186.188 72.3ZM196.945 72.3C195.872 72.3 194.955 72.0567 194.195 71.57C193.435 71.0833 192.852 70.41 192.445 69.55C192.038 68.69 191.835 67.7033 191.835 66.59C191.835 65.4567 192.042 64.4633 192.455 63.61C192.868 62.7567 193.455 62.0933 194.215 61.62C194.982 61.14 195.892 60.9 196.945 60.9C198.025 60.9 198.945 61.1433 199.705 61.63C200.472 62.11 201.055 62.78 201.455 63.64C201.862 64.4933 202.065 65.4767 202.065 66.59C202.065 67.7233 201.862 68.72 201.455 69.58C201.048 70.4333 200.462 71.1 199.695 71.58C198.928 72.06 198.012 72.3 196.945 72.3ZM196.945 70.89C198.145 70.89 199.038 70.4933 199.625 69.7C200.212 68.9 200.505 67.8633 200.505 66.59C200.505 65.2833 200.208 64.2433 199.615 63.47C199.028 62.6967 198.138 62.31 196.945 62.31C196.138 62.31 195.472 62.4933 194.945 62.86C194.425 63.22 194.035 63.7233 193.775 64.37C193.522 65.01 193.395 65.75 193.395 66.59C193.395 67.89 193.695 68.9333 194.295 69.72C194.895 70.5 195.778 70.89 196.945 70.89ZM204.261 72V61.2H212.851V72H211.381V62.61H205.731V72H204.261ZM218.748 72.3C217.934 72.3 217.251 72.1533 216.698 71.86C216.151 71.5667 215.741 71.1767 215.468 70.69C215.194 70.2033 215.058 69.6733 215.058 69.1C215.058 68.5133 215.174 68.0133 215.408 67.6C215.648 67.18 215.971 66.8367 216.378 66.57C216.791 66.3033 217.268 66.1 217.808 65.96C218.354 65.8267 218.958 65.71 219.618 65.61C220.284 65.5033 220.934 65.4133 221.568 65.34C222.208 65.26 222.768 65.1833 223.248 65.11L222.728 65.43C222.748 64.3633 222.541 63.5733 222.108 63.06C221.674 62.5467 220.921 62.29 219.848 62.29C219.108 62.29 218.481 62.4567 217.968 62.79C217.461 63.1233 217.104 63.65 216.898 64.37L215.468 63.95C215.714 62.9833 216.211 62.2333 216.958 61.7C217.704 61.1667 218.674 60.9 219.868 60.9C220.854 60.9 221.691 61.0867 222.378 61.46C223.071 61.8267 223.561 62.36 223.848 63.06C223.981 63.3733 224.068 63.7233 224.108 64.11C224.148 64.4967 224.168 64.89 224.168 65.29V72H222.858V69.29L223.238 69.45C222.871 70.3767 222.301 71.0833 221.528 71.57C220.754 72.0567 219.828 72.3 218.748 72.3ZM218.918 71.03C219.604 71.03 220.204 70.9067 220.718 70.66C221.231 70.4133 221.644 70.0767 221.958 69.65C222.271 69.2167 222.474 68.73 222.568 68.19C222.648 67.8433 222.691 67.4633 222.698 67.05C222.704 66.63 222.708 66.3167 222.708 66.11L223.268 66.4C222.768 66.4667 222.224 66.5333 221.638 66.6C221.058 66.6667 220.484 66.7433 219.918 66.83C219.358 66.9167 218.851 67.02 218.398 67.14C218.091 67.2267 217.794 67.35 217.508 67.51C217.221 67.6633 216.984 67.87 216.798 68.13C216.618 68.39 216.528 68.7133 216.528 69.1C216.528 69.4133 216.604 69.7167 216.758 70.01C216.918 70.3033 217.171 70.5467 217.518 70.74C217.871 70.9333 218.338 71.03 218.918 71.03ZM231.251 72.3C230.164 72.3 229.244 72.0567 228.491 71.57C227.738 71.0833 227.164 70.4133 226.771 69.56C226.384 68.7 226.184 67.7133 226.171 66.6C226.184 65.4667 226.391 64.4733 226.791 63.62C227.191 62.76 227.768 62.0933 228.521 61.62C229.274 61.14 230.188 60.9 231.261 60.9C232.354 60.9 233.304 61.1667 234.111 61.7C234.924 62.2333 235.481 62.9633 235.781 63.89L234.341 64.35C234.088 63.7033 233.684 63.2033 233.131 62.85C232.584 62.49 231.958 62.31 231.251 62.31C230.458 62.31 229.801 62.4933 229.281 62.86C228.761 63.22 228.374 63.7233 228.121 64.37C227.868 65.0167 227.738 65.76 227.731 66.6C227.744 67.8933 228.044 68.9333 228.631 69.72C229.218 70.5 230.091 70.89 231.251 70.89C231.984 70.89 232.608 70.7233 233.121 70.39C233.641 70.05 234.034 69.5567 234.301 68.91L235.781 69.35C235.381 70.31 234.794 71.0433 234.021 71.55C233.248 72.05 232.324 72.3 231.251 72.3ZM237.835 72V61.2H239.305V65.89H245.395V61.2H246.865V72H245.395V67.3H239.305V72H237.835ZM252.752 72.3C251.938 72.3 251.255 72.1533 250.702 71.86C250.155 71.5667 249.745 71.1767 249.472 70.69C249.198 70.2033 249.062 69.6733 249.062 69.1C249.062 68.5133 249.178 68.0133 249.412 67.6C249.652 67.18 249.975 66.8367 250.382 66.57C250.795 66.3033 251.272 66.1 251.812 65.96C252.358 65.8267 252.962 65.71 253.622 65.61C254.288 65.5033 254.938 65.4133 255.572 65.34C256.212 65.26 256.772 65.1833 257.252 65.11L256.732 65.43C256.752 64.3633 256.545 63.5733 256.112 63.06C255.678 62.5467 254.925 62.29 253.852 62.29C253.112 62.29 252.485 62.4567 251.972 62.79C251.465 63.1233 251.108 63.65 250.902 64.37L249.472 63.95C249.718 62.9833 250.215 62.2333 250.962 61.7C251.708 61.1667 252.678 60.9 253.872 60.9C254.858 60.9 255.695 61.0867 256.382 61.46C257.075 61.8267 257.565 62.36 257.852 63.06C257.985 63.3733 258.072 63.7233 258.112 64.11C258.152 64.4967 258.172 64.89 258.172 65.29V72H256.862V69.29L257.242 69.45C256.875 70.3767 256.305 71.0833 255.532 71.57C254.758 72.0567 253.832 72.3 252.752 72.3ZM252.922 71.03C253.608 71.03 254.208 70.9067 254.722 70.66C255.235 70.4133 255.648 70.0767 255.962 69.65C256.275 69.2167 256.478 68.73 256.572 68.19C256.652 67.8433 256.695 67.4633 256.702 67.05C256.708 66.63 256.712 66.3167 256.712 66.11L257.272 66.4C256.772 66.4667 256.228 66.5333 255.642 66.6C255.062 66.6667 254.488 66.7433 253.922 66.83C253.362 66.9167 252.855 67.02 252.402 67.14C252.095 67.2267 251.798 67.35 251.512 67.51C251.225 67.6633 250.988 67.87 250.802 68.13C250.622 68.39 250.532 68.7133 250.532 69.1C250.532 69.4133 250.608 69.7167 250.762 70.01C250.922 70.3033 251.175 70.5467 251.522 70.74C251.875 70.9333 252.342 71.03 252.922 71.03ZM267.545 72V67.93H265.025C264.732 67.93 264.428 67.92 264.115 67.9C263.808 67.8733 263.522 67.8367 263.255 67.79C262.495 67.6433 261.848 67.31 261.315 66.79C260.788 66.2633 260.525 65.5367 260.525 64.61C260.525 63.7033 260.772 62.9767 261.265 62.43C261.758 61.8767 262.355 61.5167 263.055 61.35C263.375 61.2767 263.698 61.2333 264.025 61.22C264.358 61.2067 264.645 61.2 264.885 61.2H269.015L269.025 72H267.545ZM260.175 72L263.185 67.47H264.815L261.785 72H260.175ZM264.945 66.67H267.545V62.46H264.945C264.785 62.46 264.562 62.4667 264.275 62.48C263.988 62.4933 263.718 62.5367 263.465 62.61C263.245 62.6767 263.025 62.7933 262.805 62.96C262.592 63.12 262.412 63.3367 262.265 63.61C262.118 63.8767 262.045 64.2033 262.045 64.59C262.045 65.13 262.192 65.5633 262.485 65.89C262.785 66.21 263.158 66.43 263.605 66.55C263.845 66.6033 264.085 66.6367 264.325 66.65C264.565 66.6633 264.772 66.67 264.945 66.67ZM137.032 100.3C135.946 100.3 135.026 100.057 134.272 99.57C133.519 99.0833 132.946 98.4133 132.552 97.56C132.166 96.7 131.966 95.7133 131.952 94.6C131.966 93.4667 132.172 92.4733 132.572 91.62C132.972 90.76 133.549 90.0933 134.302 89.62C135.056 89.14 135.969 88.9 137.042 88.9C138.136 88.9 139.086 89.1667 139.892 89.7C140.706 90.2333 141.262 90.9633 141.562 91.89L140.122 92.35C139.869 91.7033 139.466 91.2033 138.912 90.85C138.366 90.49 137.739 90.31 137.032 90.31C136.239 90.31 135.582 90.4933 135.062 90.86C134.542 91.22 134.156 91.7233 133.902 92.37C133.649 93.0167 133.519 93.76 133.512 94.6C133.526 95.8933 133.826 96.9333 134.412 97.72C134.999 98.5 135.872 98.89 137.032 98.89C137.766 98.89 138.389 98.7233 138.902 98.39C139.422 98.05 139.816 97.5567 140.082 96.91L141.562 97.35C141.162 98.31 140.576 99.0433 139.802 99.55C139.029 100.05 138.106 100.3 137.032 100.3ZM142.534 102.4V98.74C143.147 98.74 143.587 98.5433 143.854 98.15C144.12 97.75 144.337 97.1133 144.504 96.24C144.617 95.6733 144.71 95.0633 144.784 94.41C144.857 93.7567 144.92 93.01 144.974 92.17C145.027 91.3233 145.077 90.3333 145.124 89.2H152.264V98.74H153.304V102.4H151.884V100H143.944V102.4H142.534ZM145.024 98.74H150.804V90.46H146.484C146.464 90.9667 146.434 91.5033 146.394 92.07C146.36 92.6367 146.317 93.2033 146.264 93.77C146.217 94.3367 146.16 94.87 146.094 95.37C146.034 95.8633 145.96 96.2967 145.874 96.67C145.774 97.15 145.664 97.56 145.544 97.9C145.43 98.24 145.257 98.52 145.024 98.74ZM159.876 100.3C158.823 100.3 157.91 100.067 157.136 99.6C156.37 99.1333 155.773 98.4767 155.346 97.63C154.92 96.7833 154.706 95.79 154.706 94.65C154.706 93.47 154.916 92.45 155.336 91.59C155.756 90.73 156.346 90.0667 157.106 89.6C157.873 89.1333 158.776 88.9 159.816 88.9C160.883 88.9 161.793 89.1467 162.546 89.64C163.3 90.1267 163.87 90.8267 164.256 91.74C164.643 92.6533 164.82 93.7433 164.786 95.01H163.286V94.49C163.26 93.09 162.956 92.0333 162.376 91.32C161.803 90.6067 160.963 90.25 159.856 90.25C158.696 90.25 157.806 90.6267 157.186 91.38C156.573 92.1333 156.266 93.2067 156.266 94.6C156.266 95.96 156.573 97.0167 157.186 97.77C157.806 98.5167 158.683 98.89 159.816 98.89C160.59 98.89 161.263 98.7133 161.836 98.36C162.416 98 162.873 97.4833 163.206 96.81L164.576 97.34C164.15 98.28 163.52 99.01 162.686 99.53C161.86 100.043 160.923 100.3 159.876 100.3ZM155.746 95.01V93.78H163.996V95.01H155.746ZM166.005 100V98.71C166.405 98.7833 166.709 98.7667 166.915 98.66C167.129 98.5467 167.285 98.36 167.385 98.1C167.485 97.8333 167.569 97.5033 167.635 97.11C167.742 96.4567 167.839 95.7367 167.925 94.95C168.012 94.1633 168.089 93.2967 168.155 92.35C168.229 91.3967 168.302 90.3467 168.375 89.2H175.715V100H174.255V90.61H169.735C169.689 91.3167 169.635 92.02 169.575 92.72C169.515 93.42 169.452 94.0933 169.385 94.74C169.325 95.38 169.259 95.97 169.185 96.51C169.112 97.05 169.035 97.5167 168.955 97.91C168.835 98.5033 168.675 98.9767 168.475 99.33C168.282 99.6833 167.992 99.9167 167.605 100.03C167.219 100.143 166.685 100.133 166.005 100ZM178.499 100L178.509 89.2H179.989V94.4L184.809 89.2H186.769L181.709 94.6L187.429 100H185.289L179.989 94.8V100H178.499ZM191.521 100.3C190.708 100.3 190.025 100.153 189.471 99.86C188.925 99.5667 188.515 99.1767 188.241 98.69C187.968 98.2033 187.831 97.6733 187.831 97.1C187.831 96.5133 187.948 96.0133 188.181 95.6C188.421 95.18 188.745 94.8367 189.151 94.57C189.565 94.3033 190.041 94.1 190.581 93.96C191.128 93.8267 191.731 93.71 192.391 93.61C193.058 93.5033 193.708 93.4133 194.341 93.34C194.981 93.26 195.541 93.1833 196.021 93.11L195.501 93.43C195.521 92.3633 195.315 91.5733 194.881 91.06C194.448 90.5467 193.695 90.29 192.621 90.29C191.881 90.29 191.255 90.4567 190.741 90.79C190.235 91.1233 189.878 91.65 189.671 92.37L188.241 91.95C188.488 90.9833 188.985 90.2333 189.731 89.7C190.478 89.1667 191.448 88.9 192.641 88.9C193.628 88.9 194.465 89.0867 195.151 89.46C195.845 89.8267 196.335 90.36 196.621 91.06C196.755 91.3733 196.841 91.7233 196.881 92.11C196.921 92.4967 196.941 92.89 196.941 93.29V100H195.631V97.29L196.011 97.45C195.645 98.3767 195.075 99.0833 194.301 99.57C193.528 100.057 192.601 100.3 191.521 100.3ZM191.691 99.03C192.378 99.03 192.978 98.9067 193.491 98.66C194.005 98.4133 194.418 98.0767 194.731 97.65C195.045 97.2167 195.248 96.73 195.341 96.19C195.421 95.8433 195.465 95.4633 195.471 95.05C195.478 94.63 195.481 94.3167 195.481 94.11L196.041 94.4C195.541 94.4667 194.998 94.5333 194.411 94.6C193.831 94.6667 193.258 94.7433 192.691 94.83C192.131 94.9167 191.625 95.02 191.171 95.14C190.865 95.2267 190.568 95.35 190.281 95.51C189.995 95.6633 189.758 95.87 189.571 96.13C189.391 96.39 189.301 96.7133 189.301 97.1C189.301 97.4133 189.378 97.7167 189.531 98.01C189.691 98.3033 189.945 98.5467 190.291 98.74C190.645 98.9333 191.111 99.03 191.691 99.03ZM200.365 98.94L199.475 98.25L202.395 94.59L199.475 90.94L200.365 90.25L203.825 94.59L200.365 98.94ZM203.795 98.94L202.915 98.25L205.825 94.59L202.915 90.94L203.795 90.25L207.255 94.59L203.795 98.94Z" fill="#2F323A"/>
<rect x="60" y="126" width="175" height="20" fill="#E9E9E9"/>
<rect x="60" y="161" width="220" height="20" fill="#E9E9E9"/>
<rect x="60" y="196" width="147" height="20" fill="#E9E9E9"/>
<rect x="60" y="231" width="196" height="20" fill="#E9E9E9"/>
<path fill-rule="evenodd" clip-rule="evenodd" d="M245.071 202.049C241.294 202.495 236.966 206.82 232.696 214.416C231.997 215.66 231.976 215.825 232.47 216.173C232.812 216.414 233.484 216.43 233.886 216.207C234.074 216.103 234.37 215.693 234.778 214.974C236.958 211.134 239.759 207.355 241.729 205.6C242.36 205.039 243.668 204.142 244.152 203.942C245.497 203.382 246.406 203.439 247.399 204.145C249.096 205.351 250.328 208.283 250.854 212.37C251.005 213.542 251.018 218.044 250.873 218.891L250.781 219.423L249.789 219.734C246.807 220.67 243.804 222.314 241.499 224.273C237.581 227.602 235.048 232.252 235.339 235.577C235.652 239.147 238.851 240.033 243.082 237.721C247.805 235.14 251.328 229.368 252.627 222.08C252.754 221.367 252.896 220.731 252.942 220.667C253.009 220.575 253.251 220.55 254.068 220.553C254.989 220.556 255.184 220.582 255.752 220.782C256.506 221.048 257.199 221.548 257.525 222.062C257.778 222.461 257.815 222.932 257.666 223.849C257.579 224.386 257.587 224.418 257.859 224.609C258.251 224.886 258.656 224.942 259.122 224.786C259.584 224.631 259.78 224.333 259.997 223.466C260.52 221.367 262.036 218.705 263.104 218.011C263.99 217.435 264.451 217.558 265.976 218.782C267.601 220.085 268.358 220.54 269.644 220.985C270.256 221.197 271.056 221.428 271.422 221.497C272.429 221.689 274.576 221.729 275.623 221.577C277.628 221.284 279.767 220.435 279.976 219.849C280.149 219.362 279.362 218.799 278.681 218.923C278.534 218.95 278.137 219.105 277.798 219.267C275.043 220.59 271.305 220.37 268.982 218.749C268.55 218.448 267.736 217.843 267.172 217.404C265.971 216.47 265.315 216.191 264.197 216.141C263.069 216.09 262.477 216.274 261.49 216.98C260.579 217.632 259.844 218.527 259.153 219.825L258.789 220.509L258.163 220.088C257.045 219.335 255.612 218.945 253.971 218.945H253.046L253.125 218.651C253.256 218.166 253.215 213.508 253.07 212.331C252.501 207.737 251.101 204.555 248.982 203.041C248.292 202.547 247.357 202.158 246.675 202.079C245.818 201.981 245.672 201.978 245.071 202.049ZM230.751 221.035C230.421 221.12 230.087 221.401 230.021 221.648C229.939 221.956 230.141 222.25 230.687 222.62L231.085 222.89L230.654 223.207C230.082 223.626 229.939 223.839 230.021 224.147C230.097 224.432 230.326 224.608 230.779 224.729C231.193 224.841 231.58 224.728 232.166 224.325L232.637 224L233.115 224.33C233.651 224.701 234.09 224.82 234.577 224.726C235.03 224.639 235.295 224.369 235.298 223.992C235.3 223.729 235.217 223.61 234.789 223.265L234.278 222.853L234.789 222.468C235.212 222.149 235.301 222.031 235.301 221.783C235.301 221.422 235.09 221.191 234.641 221.06C234.171 220.923 233.809 221.011 233.202 221.412L232.676 221.759L232.306 221.49C231.75 221.085 231.191 220.922 230.751 221.035ZM250.428 222.017C250.194 223.259 249.644 225.292 249.223 226.471C247.224 232.074 244.161 235.723 240.274 237.134C239.257 237.503 238.634 237.52 238.197 237.19C237.76 236.86 237.616 236.471 237.551 235.444C237.459 233.996 237.94 232.251 238.923 230.456C241.105 226.474 244.843 223.34 249.525 221.567C250.033 221.375 250.478 221.217 250.514 221.216C250.55 221.215 250.512 221.576 250.428 222.017Z" fill="#212121"/>
</g>
<defs>
<filter id="filter0_d_415_8738" x="0" y="0" width="340" height="458.613" filterUnits="userSpaceOnUse" color-interpolation-filters="sRGB">
<feFlood flood-opacity="0" result="BackgroundImageFix"/>
<feColorMatrix in="SourceAlpha" type="matrix" values="0 0 0 0 0 0 0 0 0 0 0 0 0 0 0 0 0 0 127 0" result="hardAlpha"/>
<feOffset dy="15"/>
<feGaussianBlur stdDeviation="20"/>
<feComposite in2="hardAlpha" operator="out"/>
<feColorMatrix type="matrix" values="0 0 0 0 0.2625 0 0 0 0 0.24257 0 0 0 0 0.0251563 0 0 0 0.1 0"/>
<feBlend mode="normal" in2="BackgroundImageFix" result="effect1_dropShadow_415_8738"/>
<feBlend mode="normal" in="SourceGraphic" in2="effect1_dropShadow_415_8738" result="shape"/>
</filter>
</defs>
</svg>
